# xmcd
#
# Track frame offsets:
#       150
#       16808
#       32650
#       46160
#       57765
#       77918
#       94980
#       111483
#       121458
#       136825
#       154788
#       166160
#       178353
#       196688
#       211858
#       229828
#       245575
#       260675
#       274325
#       288668
#
# Disc length: 4057 seconds
#
# Revision: 0
# Processed by: cddbd v1.4b42PL1 Copyright (c) Steve Scherf et al.
# Submitted via: WhereIsIt 3.11
#
DISCID=200fd714
DTITLE=Billie Holidasy and Louis Armstrong - Jazz Stars
DYEAR=1989
DGENRE=
TTITLE0=Lady Sings The Blues
TTITLE1=Cheek To Cheek
TTITLE2=April In Paris
TTITLE3=Love Me Or Leave Me
TTITLE4=Stars Fell On Alabama
TTITLE5=Moonlight In Vermont
TTITLE6=Love Is Here To Stay
TTITLE7=Too Marvellous For Words
TTITLE8=I Wished On The Moon
TTITLE9=God Bless The Child
TTITLE10=Hello Dolly
TTITLE11=Ramona
TTITLE12=Ain't Misbehavin'
TTITLE13=Blueberry
TTITLE14=Cabaret
TTITLE15=Mack The Knife
TTITLE16=La Vie En Rose
TTITLE17=C'est Si Bon
TTITLE18=Only You
TTITLE19=When The Saints Go Marchin' In
EXTD=YEAR: 1989
EXTT0=
EXTT1=
EXTT2=
EXTT3=
EXTT4=
EXTT5=
EXTT6=
EXTT7=
EXTT8=
EXTT9=
EXTT10=
EXTT11=
EXTT12=
EXTT13=
EXTT14=
EXTT15=
EXTT16=
EXTT17=
EXTT18=
EXTT19=
PLAYORDER=
